<svg width="36" height="26" viewBox="0 0 36 26" fill="none" xmlns="http://www.w3.org/2000/svg">
<path d="M6.75 0.5C5.0924 0.5 3.50269 1.15848 2.33058 2.33058C1.15848 3.50269 0.5 5.0924 0.5 6.75V8H35.5V6.75C35.5 5.0924 34.8415 3.50269 33.6694 2.33058C32.4973 1.15848 30.9076 0.5 29.25 0.5H6.75ZM35.5 10.5H0.5V19.25C0.5 20.9076 1.15848 22.4973 2.33058 23.6694C3.50269 24.8415 5.0924 25.5 6.75 25.5H29.25C30.9076 25.5 32.4973 24.8415 33.6694 23.6694C34.8415 22.4973 35.5 20.9076 35.5 19.25V10.5ZM24.25 18H29.25C29.5815 18 29.8995 18.1317 30.1339 18.3661C30.3683 18.6005 30.5 18.9185 30.5 19.25C30.5 19.5815 30.3683 19.8995 30.1339 20.1339C29.8995 20.3683 29.5815 20.5 29.25 20.5H24.25C23.9185 20.5 23.6005 20.3683 23.3661 20.1339C23.1317 19.8995 23 19.5815 23 19.25C23 18.9185 23.1317 18.6005 23.3661 18.3661C23.6005 18.1317 23.9185 18 24.25 18Z" fill="#635BFF"/>
</svg>
