<svg width="29" height="38" viewBox="0 0 29 38" fill="none" xmlns="http://www.w3.org/2000/svg">
<path d="M3.99935 37.3332C3.08268 37.3332 2.29824 37.0071 1.64602 36.3548C0.993793 35.7026 0.667127 34.9176 0.666016 33.9998V3.99984C0.666016 3.08317 0.992682 2.29873 1.64602 1.6465C2.29935 0.994282 3.08379 0.667615 3.99935 0.666504H20.666C21.5827 0.666504 22.3677 0.993171 23.021 1.6465C23.6744 2.29984 24.0005 3.08428 23.9993 3.99984V10.6665H20.666V8.99984H3.99935V28.9998H20.666V27.3332H23.9993V33.9998C23.9993 34.9165 23.6732 35.7015 23.021 36.3548C22.3688 37.0082 21.5838 37.3343 20.666 37.3332H3.99935ZM20.666 25.6665L20.416 23.5832C20.1938 23.4998 19.9993 23.4098 19.8327 23.3132C19.666 23.2165 19.4994 23.0843 19.3327 22.9165L17.416 23.7498L15.7493 20.8332L17.416 19.5832C17.3605 19.361 17.3327 19.1526 17.3327 18.9582C17.3327 18.7637 17.3605 18.5554 17.416 18.3332L15.7493 17.0832L17.4993 14.2498L19.3327 14.9998C19.4994 14.8609 19.666 14.7498 19.8327 14.6665C19.9993 14.5832 20.1938 14.4998 20.416 14.4165L20.666 12.3332H23.9993L24.2493 14.4165C24.4716 14.4998 24.666 14.5832 24.8327 14.6665C24.9993 14.7498 25.166 14.8609 25.3327 14.9998L27.166 14.2498L28.916 17.0832L27.2494 18.3332C27.3049 18.5554 27.3327 18.7637 27.3327 18.9582C27.3327 19.1526 27.3049 19.361 27.2494 19.5832L28.916 20.8332L27.2494 23.7498L25.3327 22.9165C25.166 23.0832 24.9993 23.2148 24.8327 23.3115C24.666 23.4082 24.4716 23.4987 24.2493 23.5832L23.9993 25.6665H20.666ZM22.3327 21.4998C23.0549 21.4998 23.6521 21.2637 24.1244 20.7915C24.5966 20.3193 24.8327 19.7221 24.8327 18.9998C24.8327 18.2776 24.5966 17.6804 24.1244 17.2082C23.6521 16.7359 23.0549 16.4998 22.3327 16.4998C21.6105 16.4998 21.0132 16.7359 20.541 17.2082C20.0688 17.6804 19.8327 18.2776 19.8327 18.9998C19.8327 19.7221 20.0688 20.3193 20.541 20.7915C21.0132 21.2637 21.6105 21.4998 22.3327 21.4998Z" fill="#F59E0B"/>
</svg>
