<svg width="1440" height="641" viewBox="0 0 1440 641" fill="none" xmlns="http://www.w3.org/2000/svg">
<g clip-path="url(#clip0_222_22465)">
<rect width="1440" height="641" fill="black"/>
<g style="mix-blend-mode:plus-darker" filter="url(#filter0_f_222_22465)">
<circle cx="1242.5" cy="695.5" r="369.5" fill="#FF039A"/>
</g>
<g clip-path="url(#clip1_222_22465)">
<path d="M147.585 520.875V737H105.577L37.7413 601.773V737H-3.52435V520.875H37.8897L106.319 657.586V520.875H147.585ZM306.322 701.078V737H212.361V701.078H306.322ZM225.868 520.875V737H182.376V520.875H225.868ZM293.704 608.453V643.336H212.361V608.453H293.704ZM306.025 520.875V556.945H212.361V520.875H306.025ZM409.691 559.469L363.23 737H317.363L384.902 520.875H413.55L409.691 559.469ZM446.355 737L399.597 559.469L395.293 520.875H424.386L492.519 737H446.355ZM447.988 656.398V692.469H350.464V656.398H447.988ZM513.06 520.875H582.381C596.829 520.875 609.149 523.349 619.342 528.297C629.534 533.245 637.352 540.568 642.795 550.266C648.237 559.964 650.959 571.938 650.959 586.188C650.959 597.865 649.375 607.859 646.209 616.172C643.042 624.385 638.54 631.263 632.701 636.805C626.862 642.247 619.886 646.602 611.771 649.867L598.56 657.734H542.303L542.154 621.664H581.193C587.131 621.664 592.029 620.378 595.888 617.805C599.847 615.133 602.766 611.422 604.646 606.672C606.625 601.823 607.615 596.182 607.615 589.75C607.615 582.922 606.724 577.083 604.943 572.234C603.261 567.286 600.54 563.526 596.779 560.953C593.118 558.281 588.318 556.945 582.381 556.945H556.553V737H513.06V520.875ZM611.178 737L571.545 640.664L617.115 640.516L657.638 734.922V737H611.178ZM772.438 680.148C772.438 676.289 772.091 672.776 771.398 669.609C770.706 666.443 769.221 663.523 766.945 660.852C764.768 658.18 761.552 655.508 757.297 652.836C753.141 650.164 747.698 647.393 740.969 644.523C732.953 641.159 725.185 637.596 717.664 633.836C710.143 629.977 703.365 625.523 697.328 620.477C691.292 615.43 686.492 609.492 682.93 602.664C679.466 595.737 677.734 587.622 677.734 578.32C677.734 569.216 679.367 560.953 682.633 553.531C685.997 546.109 690.747 539.776 696.883 534.531C703.018 529.188 710.193 525.081 718.406 522.211C726.719 519.341 735.971 517.906 746.164 517.906C760.018 517.906 771.992 520.776 782.086 526.516C792.279 532.255 800.146 540.122 805.688 550.117C811.328 560.112 814.148 571.591 814.148 584.555H770.805C770.805 578.419 769.914 573.026 768.133 568.375C766.451 563.625 763.729 559.914 759.969 557.242C756.208 554.57 751.359 553.234 745.422 553.234C739.88 553.234 735.279 554.372 731.617 556.648C728.055 558.826 725.383 561.844 723.602 565.703C721.919 569.464 721.078 573.719 721.078 578.469C721.078 582.031 721.919 585.247 723.602 588.117C725.383 590.888 727.807 593.411 730.875 595.688C733.943 597.865 737.555 599.992 741.711 602.07C745.966 604.148 750.617 606.177 755.664 608.156C765.461 612.016 774.12 616.271 781.641 620.922C789.161 625.474 795.445 630.62 800.492 636.359C805.539 642 809.349 648.383 811.922 655.508C814.495 662.633 815.781 670.747 815.781 679.852C815.781 688.857 814.198 697.07 811.031 704.492C807.964 711.815 803.461 718.148 797.523 723.492C791.586 728.737 784.411 732.794 776 735.664C767.688 738.534 758.385 739.969 748.094 739.969C738.099 739.969 728.648 738.583 719.742 735.812C710.836 732.943 702.969 728.638 696.141 722.898C689.411 717.06 684.117 709.688 680.258 700.781C676.398 691.776 674.469 681.138 674.469 668.867H717.961C717.961 675.398 718.604 680.99 719.891 685.641C721.177 690.193 723.156 693.854 725.828 696.625C728.5 699.297 731.766 701.326 735.625 702.711C739.583 703.997 744.086 704.641 749.133 704.641C754.872 704.641 759.424 703.552 762.789 701.375C766.253 699.198 768.727 696.279 770.211 692.617C771.695 688.956 772.438 684.799 772.438 680.148ZM889.018 704.641L923.604 520.875H946.463L953.291 549.375L916.182 737H891.393L889.018 704.641ZM877.143 520.875L905.049 705.086L900.299 737H872.987L834.244 520.875H877.143ZM978.377 704.344L1006.14 520.875H1048.89L1010.44 737H982.979L978.377 704.344ZM959.674 520.875L994.557 705.68L991.737 737H966.948L929.987 549.078L936.963 520.875H959.674ZM1117.82 520.875V737H1074.62V520.875H1117.82ZM1228.31 660.852H1184.08V624.781H1228.31C1234.55 624.781 1239.59 623.396 1243.45 620.625C1247.31 617.854 1250.13 614.044 1251.91 609.195C1253.69 604.247 1254.58 598.706 1254.58 592.57C1254.58 586.336 1253.69 580.497 1251.91 575.055C1250.13 569.612 1247.31 565.258 1243.45 561.992C1239.59 558.628 1234.55 556.945 1228.31 556.945H1198.18V737H1154.69V520.875H1228.31C1242.86 520.875 1255.33 523.943 1265.72 530.078C1276.21 536.214 1284.27 544.674 1289.91 555.461C1295.55 566.148 1298.37 578.419 1298.37 592.273C1298.37 606.227 1295.55 618.349 1289.91 628.641C1284.27 638.833 1276.21 646.75 1265.72 652.391C1255.33 658.031 1242.86 660.852 1228.31 660.852ZM1451.17 701.078V737H1357.21V701.078H1451.17ZM1370.72 520.875V737H1327.23V520.875H1370.72ZM1438.56 608.453V643.336H1357.21V608.453H1438.56ZM1450.88 520.875V556.945H1357.21V520.875H1450.88Z" fill="#71717A"/>
</g>
<g style="mix-blend-mode:soft-light" filter="url(#filter1_f_222_22465)">
<circle cx="1140.5" cy="727.5" r="369.5" fill="#3603FF"/>
</g>
<g style="mix-blend-mode:soft-light" filter="url(#filter2_f_222_22465)">
<ellipse cx="821.5" cy="565.5" rx="218.5" ry="56.5" fill="#FF0303"/>
</g>
<g style="mix-blend-mode:soft-light" filter="url(#filter3_f_222_22465)">
<ellipse cx="397.5" cy="641.5" rx="218.5" ry="56.5" fill="#26FF03"/>
</g>
</g>
<defs>
<filter id="filter0_f_222_22465" x="673" y="126" width="1139" height="1139" filterUnits="userSpaceOnUse" color-interpolation-filters="sRGB">
<feFlood flood-opacity="0" result="BackgroundImageFix"/>
<feBlend mode="normal" in="SourceGraphic" in2="BackgroundImageFix" result="shape"/>
<feGaussianBlur stdDeviation="100" result="effect1_foregroundBlur_222_22465"/>
</filter>
<filter id="filter1_f_222_22465" x="571" y="158" width="1139" height="1139" filterUnits="userSpaceOnUse" color-interpolation-filters="sRGB">
<feFlood flood-opacity="0" result="BackgroundImageFix"/>
<feBlend mode="normal" in="SourceGraphic" in2="BackgroundImageFix" result="shape"/>
<feGaussianBlur stdDeviation="100" result="effect1_foregroundBlur_222_22465"/>
</filter>
<filter id="filter2_f_222_22465" x="403" y="309" width="837" height="513" filterUnits="userSpaceOnUse" color-interpolation-filters="sRGB">
<feFlood flood-opacity="0" result="BackgroundImageFix"/>
<feBlend mode="normal" in="SourceGraphic" in2="BackgroundImageFix" result="shape"/>
<feGaussianBlur stdDeviation="100" result="effect1_foregroundBlur_222_22465"/>
</filter>
<filter id="filter3_f_222_22465" x="-21" y="385" width="837" height="513" filterUnits="userSpaceOnUse" color-interpolation-filters="sRGB">
<feFlood flood-opacity="0" result="BackgroundImageFix"/>
<feBlend mode="normal" in="SourceGraphic" in2="BackgroundImageFix" result="shape"/>
<feGaussianBlur stdDeviation="100" result="effect1_foregroundBlur_222_22465"/>
</filter>
<clipPath id="clip0_222_22465">
<rect width="1440" height="641" fill="white"/>
</clipPath>
<clipPath id="clip1_222_22465">
<rect width="1436" height="129" fill="white" transform="translate(2 512)"/>
</clipPath>
</defs>
</svg>
