<svg width="24" height="25" viewBox="0 0 24 25" fill="none" xmlns="http://www.w3.org/2000/svg">
<path d="M20.6638 19.271C20.6638 19.271 19.5052 20.409 19.2212 20.7427C18.7587 21.2363 18.2137 21.4693 17.4992 21.4693C17.4305 21.4693 17.3573 21.4693 17.2886 21.4648C15.9284 21.3779 14.6644 20.8478 13.7164 20.3953C11.1243 19.143 8.84819 17.3652 6.95678 15.112C5.3951 13.2336 4.35093 11.4969 3.6594 9.63217C3.23349 8.49415 3.07778 7.6075 3.14647 6.77113C3.19227 6.2364 3.39835 5.79308 3.77847 5.41374L5.34015 3.85526C5.56455 3.64502 5.8027 3.53076 6.03626 3.53076C6.32478 3.53076 6.55835 3.70443 6.7049 3.85069C6.70948 3.85526 6.71406 3.85983 6.71864 3.8644C6.998 4.12491 7.26362 4.39456 7.54298 4.68249C7.68495 4.82874 7.8315 4.97499 7.97805 5.12581L9.22831 6.37351C9.71376 6.85797 9.71376 7.30586 9.22831 7.79032C9.0955 7.92286 8.96727 8.0554 8.83446 8.18337C8.44976 8.57642 8.75196 8.27483 8.35353 8.63132C8.34437 8.64046 8.33521 8.64503 8.33063 8.65417C7.93677 9.04722 8.01005 9.43113 8.09248 9.69164C8.09706 9.70535 8.10164 9.71906 8.10622 9.73277C8.43138 10.5189 8.88935 11.2593 9.58547 12.1413L9.59005 12.1459C10.854 13.6998 12.1867 14.911 13.6568 15.8387C13.8446 15.9576 14.0369 16.0536 14.2201 16.145C14.385 16.2272 14.5407 16.3049 14.6735 16.3872C14.6918 16.3963 14.7101 16.41 14.7285 16.4192C14.8842 16.4969 15.0307 16.5334 15.1819 16.5334C15.562 16.5334 15.8001 16.2958 15.878 16.2181L16.7757 15.3222C16.9314 15.1668 17.1787 14.9795 17.4672 14.9795C17.7511 14.9795 17.9847 15.1577 18.1267 15.3131C18.1312 15.3177 18.1312 15.3177 18.1358 15.3222L20.6592 17.8405C21.1309 18.3067 20.6638 19.271 20.6638 19.271Z" stroke="#F3F3F3" stroke-width="2" stroke-linecap="round" stroke-linejoin="round"/>
</svg>
