<svg width="33" height="40" viewBox="0 0 33 40" fill="none" xmlns="http://www.w3.org/2000/svg">
<path d="M28.806 16H26.666V10C26.666 10 26.666 0 16.666 0C6.66602 0 6.66602 10 6.66602 10V16H4.52602C3.50228 16 2.52047 16.4067 1.79658 17.1306C1.07269 17.8545 0.666016 18.8363 0.666016 19.86V36.16C0.671302 37.1803 1.08031 38.1569 1.80363 38.8765C2.52695 39.5961 3.50574 40 4.52602 40H28.806C29.8298 40 30.8116 39.5933 31.5354 38.8694C32.2593 38.1455 32.666 37.1637 32.666 36.14V19.86C32.666 18.8363 32.2593 17.8545 31.5354 17.1306C30.8116 16.4067 29.8298 16 28.806 16ZM10.666 11C10.666 8 10.666 4 16.666 4C22.666 4 22.666 8 22.666 11V16H10.666V11ZM16.666 32C15.8749 32 15.1015 31.7654 14.4437 31.3259C13.7859 30.8864 13.2732 30.2616 12.9705 29.5307C12.6677 28.7998 12.5885 27.9956 12.7429 27.2196C12.8972 26.4437 13.2782 25.731 13.8376 25.1716C14.397 24.6122 15.1097 24.2312 15.8857 24.0769C16.6616 23.9225 17.4658 24.0017 18.1967 24.3045C18.9277 24.6072 19.5524 25.1199 19.9919 25.7777C20.4314 26.4355 20.666 27.2089 20.666 28C20.666 29.0609 20.2446 30.0783 19.4944 30.8284C18.7443 31.5786 17.7269 32 16.666 32Z" fill="#EF4444"/>
</svg>
