<svg width="30" height="30" viewBox="0 0 30 30" fill="none" xmlns="http://www.w3.org/2000/svg">
<path d="M5.66797 20.3332L12.3346 16.3332M17.668 13.6665L24.3346 9.6665M15.0013 5.6665V12.3332M15.0013 17.6665V24.3332M5.66797 9.6665L12.3346 13.6665M17.668 16.3332L24.3346 20.3332M26.3346 10.9998V18.3332M17.0013 26.3332L24.3346 22.3332M5.0013 22.3332L13.0013 26.3332M3.66797 18.9998V10.9998M5.0013 7.6665L13.0013 3.6665M25.0013 7.6665L17.0013 3.6665" stroke="#635BFF" stroke-width="1.5" stroke-linecap="round" stroke-linejoin="round"/>
<path d="M15 5.6665C16.1046 5.6665 17 4.77107 17 3.6665C17 2.56193 16.1046 1.6665 15 1.6665C13.8954 1.6665 13 2.56193 13 3.6665C13 4.77107 13.8954 5.6665 15 5.6665Z" stroke="#635BFF" stroke-width="1.5" stroke-linecap="round" stroke-linejoin="round"/>
<path d="M15 28.333C16.1046 28.333 17 27.4376 17 26.333C17 25.2284 16.1046 24.333 15 24.333C13.8954 24.333 13 25.2284 13 26.333C13 27.4376 13.8954 28.333 15 28.333Z" stroke="#635BFF" stroke-width="1.5" stroke-linecap="round" stroke-linejoin="round"/>
<path d="M3.66797 11C4.77254 11 5.66797 10.1046 5.66797 9C5.66797 7.89543 4.77254 7 3.66797 7C2.5634 7 1.66797 7.89543 1.66797 9C1.66797 10.1046 2.5634 11 3.66797 11Z" stroke="#635BFF" stroke-width="1.5" stroke-linecap="round" stroke-linejoin="round"/>
<path d="M26.3359 11C27.4405 11 28.3359 10.1046 28.3359 9C28.3359 7.89543 27.4405 7 26.3359 7C25.2314 7 24.3359 7.89543 24.3359 9C24.3359 10.1046 25.2314 11 26.3359 11Z" stroke="#635BFF" stroke-width="1.5" stroke-linecap="round" stroke-linejoin="round"/>
<path d="M26.3359 23C27.4405 23 28.3359 22.1046 28.3359 21C28.3359 19.8954 27.4405 19 26.3359 19C25.2314 19 24.3359 19.8954 24.3359 21C24.3359 22.1046 25.2314 23 26.3359 23Z" stroke="#635BFF" stroke-width="1.5" stroke-linecap="round" stroke-linejoin="round"/>
<path d="M3.66797 23C4.77254 23 5.66797 22.1046 5.66797 21C5.66797 19.8954 4.77254 19 3.66797 19C2.5634 19 1.66797 19.8954 1.66797 21C1.66797 22.1046 2.5634 23 3.66797 23Z" stroke="#635BFF" stroke-width="1.5" stroke-linecap="round" stroke-linejoin="round"/>
<path d="M15.0026 12L17.6693 13.5V16.5L15.0026 18L12.3359 16.5V13.5L15.0026 12Z" stroke="#635BFF" stroke-width="1.5" stroke-linecap="round" stroke-linejoin="round"/>
</svg>
