<svg width="34" height="34" viewBox="0 0 34 34" fill="none" xmlns="http://www.w3.org/2000/svg">
<path d="M1.16602 10.6448C1.33935 7.14484 1.85768 4.9615 3.41102 3.4115C4.96102 1.85817 7.14435 1.33984 10.6443 1.1665M32.8327 10.6448C32.6593 7.14484 32.141 4.9615 30.5877 3.4115C29.0377 1.85817 26.8543 1.33984 23.3543 1.1665M23.3543 32.8332C26.8543 32.6598 29.0377 32.1415 30.5877 30.5882C32.141 29.0382 32.6593 26.8548 32.8327 23.3548M10.6443 32.8332C7.14435 32.6598 4.96102 32.1415 3.41102 30.5882C1.85768 29.0382 1.33935 26.8548 1.16602 23.3548M29.7243 15.8632C30.1293 16.3698 30.3327 16.6248 30.3327 16.9998C30.3327 17.3748 30.1293 17.6298 29.7243 18.1365C27.9027 20.4165 23.251 25.3332 16.9993 25.3332C10.7477 25.3332 6.09602 20.4165 4.27435 18.1365C3.86935 17.6298 3.66602 17.3748 3.66602 16.9998C3.66602 16.6248 3.86935 16.3698 4.27435 15.8632C6.09602 13.5832 10.7477 8.6665 16.9993 8.6665C23.251 8.6665 27.9027 13.5832 29.7243 15.8632Z" stroke="#635BFF" stroke-width="1.5" stroke-linecap="round" stroke-linejoin="round"/>
<path d="M20.3327 16.9998C20.3327 16.1158 19.9815 15.2679 19.3564 14.6428C18.7312 14.0177 17.8834 13.6665 16.9993 13.6665C16.1153 13.6665 15.2674 14.0177 14.6423 14.6428C14.0172 15.2679 13.666 16.1158 13.666 16.9998C13.666 17.8839 14.0172 18.7317 14.6423 19.3569C15.2674 19.982 16.1153 20.3332 16.9993 20.3332C17.8834 20.3332 18.7312 19.982 19.3564 19.3569C19.9815 18.7317 20.3327 17.8839 20.3327 16.9998Z" stroke="#635BFF" stroke-width="1.5" stroke-linecap="round" stroke-linejoin="round"/>
</svg>
