<svg width="38" height="32" viewBox="0 0 38 32" fill="none" xmlns="http://www.w3.org/2000/svg">
<path d="M35.4995 23.2508V11.7177L20.0165 20.1135C19.4878 20.4183 18.9288 20.5707 18.3395 20.5707C17.7516 20.5707 17.1883 20.4175 16.6495 20.1113L1.84033 12.021C1.52688 11.8332 1.29577 11.6108 1.14699 11.3537C0.998217 11.0965 0.923828 10.812 0.923828 10.5C0.923828 10.188 0.998217 9.90343 1.14699 9.64632C1.29577 9.38921 1.52688 9.16677 1.84033 8.97899L16.6473 0.910322C16.9102 0.762989 17.181 0.653211 17.4598 0.580989C17.7372 0.508767 18.0282 0.472656 18.333 0.472656C18.6378 0.472656 18.9288 0.510211 19.2062 0.585322C19.4835 0.660433 19.7536 0.775267 20.0165 0.929823L36.7367 9.98649C37.0328 10.1367 37.2617 10.3534 37.4235 10.6365C37.5853 10.9196 37.6662 11.2244 37.6662 11.5508V23.2508C37.6662 23.557 37.5622 23.8142 37.3542 24.0222C37.1462 24.2302 36.889 24.3342 36.5828 24.3342C36.2766 24.3342 36.0188 24.2302 35.8093 24.0222C35.5999 23.8142 35.4966 23.557 35.4995 23.2508ZM16.6495 30.572L7.15083 25.4283C6.59472 25.1134 6.15272 24.6787 5.82483 24.124C5.49694 23.5737 5.33299 22.9778 5.33299 22.3365V15.6025L16.6495 21.7407C17.1782 22.0454 17.7372 22.1978 18.3265 22.1978C18.9144 22.1978 19.4777 22.0447 20.0165 21.7385L31.333 15.6003V22.3408C31.333 22.9908 31.1691 23.5903 30.8412 24.1392C30.5133 24.6852 30.072 25.1156 29.5173 25.4305L20.0165 30.572C19.7507 30.7237 19.4777 30.8378 19.1975 30.9143C18.9173 30.9909 18.6291 31.0292 18.333 31.0292C18.0369 31.0292 17.7487 30.9909 17.4685 30.9143C17.1883 30.8378 16.9153 30.7237 16.6495 30.572Z" fill="#635BFF"/>
</svg>
