<svg width="31" height="34" viewBox="0 0 31 34" fill="none" xmlns="http://www.w3.org/2000/svg">
<path d="M13.916 29.5832C14.4716 29.9165 15.0549 30.0765 15.666 30.0632C16.2771 30.0498 16.8605 29.8759 17.416 29.5415L24.9993 24.9165C23.6105 23.9443 22.1243 23.2154 20.541 22.7298C18.9577 22.2443 17.3327 22.0009 15.666 21.9998C13.9993 21.9987 12.3677 22.2421 10.771 22.7298C9.17435 23.2176 7.66713 23.9326 6.24935 24.8748L13.916 29.5832ZM15.666 18.6665C17.2771 18.6665 18.6521 18.0971 19.791 16.9582C20.9299 15.8193 21.4993 14.4443 21.4993 12.8332C21.4993 11.2221 20.9299 9.84706 19.791 8.70817C18.6521 7.56928 17.2771 6.99984 15.666 6.99984C14.0549 6.99984 12.6799 7.56928 11.541 8.70817C10.4021 9.84706 9.83268 11.2221 9.83268 12.8332C9.83268 14.4443 10.4021 15.8193 11.541 16.9582C12.6799 18.0971 14.0549 18.6665 15.666 18.6665ZM13.916 33.4582L2.24935 26.2915C1.74935 25.9859 1.36046 25.5832 1.08268 25.0832C0.804905 24.5832 0.666016 24.0415 0.666016 23.4582V10.5415C0.666016 9.95817 0.804905 9.4165 1.08268 8.9165C1.36046 8.4165 1.74935 8.01373 2.24935 7.70817L13.916 0.541504C14.4716 0.20817 15.0549 0.0415039 15.666 0.0415039C16.2771 0.0415039 16.8605 0.20817 17.416 0.541504L29.0827 7.70817C29.5827 8.01373 29.9716 8.4165 30.2493 8.9165C30.5271 9.4165 30.666 9.95817 30.666 10.5415V23.4582C30.666 24.0415 30.5271 24.5832 30.2493 25.0832C29.9716 25.5832 29.5827 25.9859 29.0827 26.2915L17.416 33.4582C16.8605 33.7915 16.2771 33.9582 15.666 33.9582C15.0549 33.9582 14.4716 33.7915 13.916 33.4582Z" fill="#635BFF"/>
</svg>
