<svg width="33" height="37" viewBox="0 0 33 37" fill="none" xmlns="http://www.w3.org/2000/svg">
<path d="M25.667 18.6668C26.2337 18.6668 26.7837 18.7335 27.3337 18.8168V10.3335L17.3337 0.333496H4.00033C2.15033 0.333496 0.666992 1.81683 0.666992 3.66683V30.3335C0.666992 32.1835 2.15033 33.6668 4.00033 33.6668H17.017C16.167 32.2002 15.667 30.5002 15.667 28.6668C15.667 23.1502 20.1503 18.6668 25.667 18.6668ZM15.667 2.8335L24.8337 12.0002H15.667V2.8335ZM27.3337 29.5002V27.0002H20.667V23.6668H27.3337V21.1668L32.3337 25.3335L27.3337 29.5002ZM24.0003 30.3335H30.667V33.6668H24.0003V36.1668L19.0003 32.0002L24.0003 27.8335V30.3335Z" fill="#F59E0B"/>
</svg>
