<svg width="35" height="33" viewBox="0 0 35 33" fill="none" xmlns="http://www.w3.org/2000/svg">
<path d="M32.7834 4.25L30.55 3.31667V18.3667L34.6 8.6C35.2834 6.9 34.5 4.95 32.7834 4.25ZM0.283384 10.4167L8.55005 30.3333C8.79347 30.9393 9.2087 31.4609 9.74465 31.834C10.2806 32.2071 10.9139 32.4154 11.5667 32.4333C12 32.4333 12.45 32.35 12.8834 32.1667L25.1667 27.0833C26.4167 26.5667 27.1834 25.3333 27.2167 24.1C27.2334 23.6667 27.15 23.1833 27 22.75L18.6667 2.83333C18.4319 2.22284 18.0184 1.6974 17.4802 1.32571C16.942 0.954014 16.3041 0.753367 15.65 0.75C15.2167 0.75 14.7834 0.85 14.3667 1L2.10005 6.08333C1.28466 6.41724 0.635236 7.06129 0.294571 7.87389C-0.0460938 8.68648 -0.0501179 9.60111 0.283384 10.4167ZM27.2001 4.08333C27.2001 3.19928 26.8489 2.35143 26.2237 1.72631C25.5986 1.10119 24.7508 0.75 23.8667 0.75H21.4501L27.2001 14.65" fill="#EF4444"/>
</svg>
