<svg width="36" height="36" viewBox="0 0 36 36" fill="none" xmlns="http://www.w3.org/2000/svg">
<path d="M9.66732 13.0002C10.4334 13.0002 11.1919 12.8493 11.8996 12.5561C12.6074 12.263 13.2504 11.8333 13.7921 11.2916C14.3338 10.7499 14.7635 10.1069 15.0566 9.39915C15.3498 8.69142 15.5007 7.93287 15.5007 7.16683C15.5007 6.40079 15.3498 5.64224 15.0566 4.93451C14.7635 4.22678 14.3338 3.58371 13.7921 3.04204C13.2504 2.50036 12.6074 2.07068 11.8996 1.77753C11.1919 1.48438 10.4334 1.3335 9.66732 1.3335C8.12022 1.3335 6.63649 1.94808 5.54253 3.04204C4.44857 4.136 3.83398 5.61973 3.83398 7.16683C3.83398 8.71393 4.44857 10.1977 5.54253 11.2916C6.63649 12.3856 8.12022 13.0002 9.66732 13.0002ZM26.334 13.0002C27.1 13.0002 27.8586 12.8493 28.5663 12.5561C29.274 12.263 29.9171 11.8333 30.4588 11.2916C31.0005 10.7499 31.4301 10.1069 31.7233 9.39915C32.0164 8.69142 32.1673 7.93287 32.1673 7.16683C32.1673 6.40079 32.0164 5.64224 31.7233 4.93451C31.4301 4.22678 31.0005 3.58371 30.4588 3.04204C29.9171 2.50036 29.274 2.07068 28.5663 1.77753C27.8586 1.48438 27.1 1.3335 26.334 1.3335C24.7869 1.3335 23.3032 1.94808 22.2092 3.04204C21.1152 4.136 20.5007 5.61973 20.5007 7.16683C20.5007 8.71393 21.1152 10.1977 22.2092 11.2916C23.3032 12.3856 24.7869 13.0002 26.334 13.0002Z" stroke="#635BFF" stroke-width="2" stroke-linejoin="round"/>
<path d="M1.33398 34.6668V27.1668C1.33398 22.5643 4.47565 18.8335 8.35148 18.8335H12.5623C15.9665 18.8335 18.0007 22.1893 18.0007 22.1893" stroke="#635BFF" stroke-width="2" stroke-linecap="round" stroke-linejoin="round"/>
<path d="M34.668 34.6668V27.1668C34.668 22.5643 31.4888 18.8335 27.5671 18.8335H23.3063C20.0055 18.8335 17.9946 22.1893 18.0013 22.1893M7.16797 31.3335H29.668" stroke="#635BFF" stroke-width="2" stroke-linecap="round" stroke-linejoin="round"/>
<path d="M26.5808 28.215L27.6141 29.2542L29.6808 31.3334L27.6141 33.4675L26.5808 34.535M9.94326 28.1934L8.89326 29.2384L6.79492 31.3275L8.89326 33.4509L9.94326 34.5134" stroke="#635BFF" stroke-width="2" stroke-linecap="round" stroke-linejoin="round"/>
</svg>
