<svg width="26" height="22" viewBox="0 0 26 22" fill="none" xmlns="http://www.w3.org/2000/svg">
<path d="M4.99922 1.5998C4.99922 1.38763 5.0835 1.18415 5.23353 1.03412C5.38356 0.88409 5.58705 0.799805 5.79922 0.799805H10.5992C10.8114 0.799805 11.0149 0.88409 11.1649 1.03412C11.3149 1.18415 11.3992 1.38763 11.3992 1.5998V6.3998C11.3992 6.61198 11.3149 6.81546 11.1649 6.96549C11.0149 7.11552 10.8114 7.1998 10.5992 7.1998H5.79922C5.58705 7.1998 5.38356 7.11552 5.23353 6.96549C5.0835 6.81546 4.99922 6.61198 4.99922 6.3998V1.5998ZM15.3992 0.799805C15.187 0.799805 14.9836 0.88409 14.8335 1.03412C14.6835 1.18415 14.5992 1.38763 14.5992 1.5998V6.3998C14.5992 6.61198 14.6835 6.81546 14.8335 6.96549C14.9836 7.11552 15.187 7.1998 15.3992 7.1998H20.1992C20.4114 7.1998 20.6149 7.11552 20.7649 6.96549C20.9149 6.81546 20.9992 6.61198 20.9992 6.3998V1.5998C20.9992 1.38763 20.9149 1.18415 20.7649 1.03412C20.6149 0.88409 20.4114 0.799805 20.1992 0.799805H15.3992ZM16.1992 5.5998V2.3998H19.3992V5.5998H16.1992ZM6.59922 16.7998C7.02357 16.7998 7.43053 16.6312 7.73059 16.3312C8.03065 16.0311 8.19922 15.6242 8.19922 15.1998C8.19922 14.7755 8.03065 14.3685 7.73059 14.0684C7.43053 13.7684 7.02357 13.5998 6.59922 13.5998C6.17487 13.5998 5.76791 13.7684 5.46785 14.0684C5.16779 14.3685 4.99922 14.7755 4.99922 15.1998C4.99922 15.6242 5.16779 16.0311 5.46785 16.3312C5.76791 16.6312 6.17487 16.7998 6.59922 16.7998ZM14.5992 15.1998C14.5992 15.6242 14.4306 16.0311 14.1306 16.3312C13.8305 16.6312 13.4236 16.7998 12.9992 16.7998C12.5749 16.7998 12.1679 16.6312 11.8678 16.3312C11.5678 16.0311 11.3992 15.6242 11.3992 15.1998C11.3992 14.7755 11.5678 14.3685 11.8678 14.0684C12.1679 13.7684 12.5749 13.5998 12.9992 13.5998C13.4236 13.5998 13.8305 13.7684 14.1306 14.0684C14.4306 14.3685 14.5992 14.7755 14.5992 15.1998ZM19.3992 16.7998C19.8236 16.7998 20.2305 16.6312 20.5306 16.3312C20.8306 16.0311 20.9992 15.6242 20.9992 15.1998C20.9992 14.7755 20.8306 14.3685 20.5306 14.0684C20.2305 13.7684 19.8236 13.5998 19.3992 13.5998C18.9749 13.5998 18.5679 13.7684 18.2678 14.0684C17.9678 14.3685 17.7992 14.7755 17.7992 15.1998C17.7992 15.6242 17.9678 16.0311 18.2678 16.3312C18.5679 16.6312 18.9749 16.7998 19.3992 16.7998ZM0.199219 15.1998C0.199219 13.5024 0.873503 11.8746 2.07374 10.6743C3.27397 9.47409 4.90183 8.7998 6.59922 8.7998H19.3992C21.0966 8.7998 22.7245 9.47409 23.9247 10.6743C25.1249 11.8746 25.7992 13.5024 25.7992 15.1998C25.7992 16.8972 25.1249 18.5251 23.9247 19.7253C22.7245 20.9255 21.0966 21.5998 19.3992 21.5998H6.59922C4.90183 21.5998 3.27397 20.9255 2.07374 19.7253C0.873503 18.5251 0.199219 16.8972 0.199219 15.1998ZM6.59922 10.3998C5.32618 10.3998 4.10528 10.9055 3.20511 11.8057C2.30493 12.7059 1.79922 13.9268 1.79922 15.1998C1.79922 16.4728 2.30493 17.6937 3.20511 18.5939C4.10528 19.4941 5.32618 19.9998 6.59922 19.9998H19.3992C20.6723 19.9998 21.8932 19.4941 22.7933 18.5939C23.6935 17.6937 24.1992 16.4728 24.1992 15.1998C24.1992 13.9268 23.6935 12.7059 22.7933 11.8057C21.8932 10.9055 20.6723 10.3998 19.3992 10.3998H6.59922Z" fill="#635BFF"/>
</svg>
