<svg width="41" height="28" viewBox="0 0 41 28" fill="none" xmlns="http://www.w3.org/2000/svg">
<path d="M11.9997 13.9998C15.6663 13.9998 18.6663 10.9998 18.6663 7.33317C18.6663 3.6665 15.6663 0.666504 11.9997 0.666504C8.33301 0.666504 5.33301 3.6665 5.33301 7.33317C5.33301 10.9998 8.33301 13.9998 11.9997 13.9998ZM18.6663 27.3332V18.4998C16.833 17.8332 14.4997 17.3332 11.9997 17.3332C5.49967 17.3332 0.333008 20.3332 0.333008 23.9998V27.3332H18.6663ZM25.333 0.666504C23.4997 0.666504 21.9997 2.1665 21.9997 3.99984V23.9998C21.9997 25.8332 23.4997 27.3332 25.333 27.3332H36.9997C38.833 27.3332 40.333 25.8332 40.333 23.9998V3.99984C40.333 2.1665 38.833 0.666504 36.9997 0.666504H25.333Z" fill="#EF4444"/>
</svg>
